<svg width="120" height="20" viewBox="0 0 120 20" fill="none" xmlns="http://www.w3.org/2000/svg">
<path d="M9.93939 1.24805L12.7017 6.84411L18.8788 7.74699L14.4091 12.1005L15.4639 18.2508L9.93939 15.3455L4.41485 18.2508L5.4697 12.1005L1 7.74699L7.17712 6.84411L9.93939 1.24805Z" fill="#FFD700" stroke="#FFD700" stroke-width="2" stroke-linecap="round" stroke-linejoin="round"/>
<path d="M34.9687 1.24805L37.731 6.84411L43.9081 7.74699L39.4384 12.1005L40.4932 18.2508L34.9687 15.3455L29.4441 18.2508L30.499 12.1005L26.0293 7.74699L32.2064 6.84411L34.9687 1.24805Z" fill="#FFD700" stroke="#FFD700" stroke-width="2" stroke-linecap="round" stroke-linejoin="round"/>
<path d="M59.9999 1.24805L62.7622 6.84411L68.9393 7.74699L64.4696 12.1005L65.5245 18.2508L59.9999 15.3455L54.4754 18.2508L55.5302 12.1005L51.0605 7.74699L57.2377 6.84411L59.9999 1.24805Z" fill="#FFD700" stroke="#FFD700" stroke-width="2" stroke-linecap="round" stroke-linejoin="round"/>
<path d="M85.0312 1.24805L87.7935 6.84411L93.9706 7.74699L89.5009 12.1005L90.5557 18.2508L85.0312 15.3455L79.5066 18.2508L80.5615 12.1005L76.0918 7.74699L82.2689 6.84411L85.0312 1.24805Z" fill="#FFD700" stroke="#FFD700" stroke-width="2" stroke-linecap="round" stroke-linejoin="round"/>
<path d="M110.06 1.24805L112.823 6.84411L119 7.74699L114.53 12.1005L115.585 18.2508L110.06 15.3455L104.536 18.2508L105.591 12.1005L101.121 7.74699L107.298 6.84411L110.06 1.24805Z" fill="#FFD700" stroke="#FFD700" stroke-width="2" stroke-linecap="round" stroke-linejoin="round"/>
</svg>
