<svg xmlns="http://www.w3.org/2000/svg" viewBox="0 0 358.6 41.03"><defs><style>.cls-1{fill:#4b4b4b;}.cls-2,.cls-4,.cls-5,.cls-6{fill:none;}.cls-2{stroke:#fdfdfd;stroke-linecap:round;stroke-linejoin:round;stroke-width:3.63px;}.cls-3{fill:#fdfdfd;}.cls-4,.cls-5,.cls-6{stroke:#4c4b4b;stroke-miterlimit:10;}.cls-4{stroke-width:1.53px;}.cls-5{stroke-width:2.65px;}.cls-6{stroke-width:4.41px;}.cls-7,.cls-8{fill:#4c4b4b;}.cls-8{font-size:14px;font-family:Roboto-Regular, Roboto;}.cls-9{letter-spacing:-0.02em;}.cls-10{font-family:Roboto-Bold, Roboto;font-weight:700;}.cls-11{letter-spacing:-0.01em;}.cls-12{letter-spacing:-0.01em;}.cls-13{letter-spacing:-0.02em;}</style></defs><g id="Camada_2" data-name="Camada 2"><g id="Camada_1-2" data-name="Camada 1"><g id="compra_segura" data-name="compra segura"><path class="cls-1" d="M15,39.71S30,32.21,30,21V7.83L15,2.21,0,7.83V21C0,32.21,15,39.71,15,39.71Z"/><path class="cls-2" d="M21.31,13.87,13.23,24.05,8.69,19.52"/></g><g id="satisfação_garantida" data-name="satisfação garantida"><circle class="cls-1" cx="135.21" cy="14.49" r="12.29"/><path class="cls-3" d="M135.51,7.08,137.44,11a.38.38,0,0,0,.28.21l4.31.63a.38.38,0,0,1,.21.65l-3.12,3a.36.36,0,0,0-.1.34l.73,4.29a.38.38,0,0,1-.55.4l-3.86-2a.36.36,0,0,0-.35,0l-3.85,2a.39.39,0,0,1-.56-.4l.74-4.29a.4.4,0,0,0-.11-.34l-3.12-3a.38.38,0,0,1,.21-.65l4.31-.63a.4.4,0,0,0,.29-.21l1.93-3.91A.38.38,0,0,1,135.51,7.08Z"/><path class="cls-4" d="M129.7,39.68l-3.07-5.36a.05.05,0,0,0-.08,0l-4,2.57a.06.06,0,0,1-.08-.07l3.93-10.22a.34.34,0,0,1,.54-.14l2.33,2a1,1,0,0,0,.57.24l3.6.25a.33.33,0,0,1,.28.45l-4,10.31A.06.06,0,0,1,129.7,39.68Z"/><path class="cls-4" d="M140.73,39.68l3.07-5.36a.05.05,0,0,1,.08,0l4,2.57a.06.06,0,0,0,.09-.07L144,26.58a.34.34,0,0,0-.54-.14l-2.34,2a1,1,0,0,1-.56.24l-3.6.25a.33.33,0,0,0-.29.45l4,10.31A.06.06,0,0,0,140.73,39.68Z"/></g><rect class="cls-5" x="244.9" y="18.87" width="31.09" height="20.84" rx="5.91"/><path class="cls-6" d="M270.15,15.23V10.7a8.51,8.51,0,0,0-8.49-8.49h-2.43a8.51,8.51,0,0,0-8.49,8.49v4.53"/><path class="cls-7" d="M264.46,34l-2.28-4.16a3,3,0,1,0-3.41.05L256.43,34Z"/><text class="cls-8" transform="translate(39.56 17.55)">Comp<tspan class="cls-9" x="37.22" y="0">r</tspan><tspan x="41.69" y="0">a</tspan><tspan class="cls-10"><tspan x="0" y="15">Segu</tspan><tspan class="cls-11" x="32" y="15">r</tspan><tspan x="36.9" y="15">a</tspan></tspan></text><text class="cls-8" transform="translate(156.11 17.55)">Satisfação<tspan class="cls-10"><tspan x="0" y="15">Ga</tspan><tspan class="cls-11" x="17.04" y="15">r</tspan><tspan x="21.94" y="15">antida</tspan></tspan></text><text class="cls-8" transform="translate(285.79 17.55)">Pri<tspan class="cls-12" x="16.97" y="0">v</tspan><tspan x="23.65" y="0">acidade</tspan><tspan class="cls-10"><tspan x="0" y="15">P</tspan><tspan class="cls-13" x="9.03" y="15">r</tspan><tspan x="13.89" y="15">otegida</tspan></tspan></text></g></g></svg>