<svg width="250" height="32" viewBox="0 0 250 32" fill="none" xmlns="http://www.w3.org/2000/svg">
<rect x="102.976" y="0.5" width="44.0487" height="31" rx="5.5" fill="white" stroke="#D9D9D9"/>
<path fill-rule="evenodd" clip-rule="evenodd" d="M116.151 21.6766H113.422L111.376 13.5894C111.279 13.2173 111.072 12.8885 110.769 12.7335C110.012 12.3439 109.178 12.0339 108.268 11.8776V11.5662H112.664C113.271 11.5662 113.726 12.0339 113.802 12.5771L114.863 18.4107L117.591 11.5662H120.244L116.151 21.6766ZM121.761 21.6766H119.184L121.306 11.5662H123.883L121.761 21.6766ZM127.218 14.3675C127.294 13.823 127.749 13.5117 128.28 13.5117C129.114 13.4335 130.023 13.5898 130.781 13.978L131.237 11.8012C130.478 11.4898 129.644 11.3335 128.887 11.3335C126.385 11.3335 124.565 12.7339 124.565 14.6776C124.565 16.1562 125.854 16.9325 126.764 17.4003C127.749 17.8666 128.128 18.178 128.052 18.6443C128.052 19.3439 127.294 19.6552 126.537 19.6552C125.627 19.6552 124.717 19.4221 123.884 19.0325L123.428 21.2107C124.339 21.5989 125.323 21.7552 126.233 21.7552C129.038 21.832 130.781 20.433 130.781 18.333C130.781 15.6885 127.218 15.5335 127.218 14.3675ZM139.802 21.6766L137.755 11.5662H135.557C135.102 11.5662 134.647 11.8776 134.495 12.3439L130.706 21.6766H133.359L133.888 20.1993H137.148L137.452 21.6766H139.802ZM135.936 14.2895L136.693 18.1H134.571L135.936 14.2895Z" fill="#172B85"/>
<rect x="154.213" y="0.5" width="44.0487" height="31" rx="5.5" fill="white" stroke="#D9D9D9"/>
<path fill-rule="evenodd" clip-rule="evenodd" d="M176.492 23.1741C174.958 24.5451 172.969 25.3728 170.795 25.3728C165.944 25.3728 162.012 21.252 162.012 16.1688C162.012 11.0856 165.944 6.96484 170.795 6.96484C172.969 6.96484 174.958 7.79251 176.492 9.16355C178.025 7.79251 180.015 6.96484 182.189 6.96484C187.039 6.96484 190.972 11.0856 190.972 16.1688C190.972 21.252 187.039 25.3728 182.189 25.3728C180.015 25.3728 178.025 24.5451 176.492 23.1741Z" fill="#ED0006"/>
<path fill-rule="evenodd" clip-rule="evenodd" d="M176.492 23.1738C178.38 21.4857 179.578 18.9738 179.578 16.1688C179.578 13.3639 178.38 10.852 176.492 9.1638C178.026 7.79261 180.015 6.96484 182.189 6.96484C187.04 6.96484 190.972 11.0856 190.972 16.1688C190.972 21.252 187.04 25.3728 182.189 25.3728C180.015 25.3728 178.026 24.545 176.492 23.1738Z" fill="#F9A000"/>
<path fill-rule="evenodd" clip-rule="evenodd" d="M176.492 9.16357C178.38 10.8518 179.578 13.3637 179.578 16.1688C179.578 18.9739 178.38 21.4858 176.492 23.174C174.604 21.4858 173.406 18.9739 173.406 16.1688C173.406 13.3637 174.604 10.8518 176.492 9.16357Z" fill="#FF5E00"/>
<rect x="205.451" y="0.5" width="44.0487" height="31" rx="5.5" fill="white" stroke="#D9D9D9"/>
<path d="M215.247 12.2994C215.634 12.1679 216.048 12.0965 216.479 12.0965C218.36 12.0965 219.93 13.4543 220.29 15.258L222.955 14.7057C222.344 11.6401 219.677 9.33252 216.479 9.33252C215.747 9.33252 215.043 9.45371 214.385 9.67695L215.247 12.2994Z" fill="#FECA2F"/>
<path d="M212.073 21.1835L213.669 19.0488C212.957 18.3024 212.507 17.2126 212.507 15.9979C212.507 14.7841 212.956 13.6943 213.669 12.9484L212.072 10.814C210.861 12.0822 210.099 13.9346 210.099 15.9979C210.099 18.0622 210.863 19.9153 212.073 21.1835Z" fill="#1BA7DE"/>
<path d="M220.29 16.7402C219.929 18.5437 218.361 19.8998 216.482 19.8998C216.05 19.8998 215.635 19.8282 215.248 19.6962L214.385 22.32C215.044 22.5444 215.749 22.6657 216.482 22.6657C219.676 22.6657 222.341 20.3597 222.955 17.2953L220.29 16.7402Z" fill="#EC412A"/>
<path fill-rule="evenodd" clip-rule="evenodd" d="M235.78 10.814V18.4004L237.094 18.9461L236.472 20.4424L235.173 19.9013C234.881 19.7743 234.683 19.5809 234.533 19.3625C234.388 19.139 234.281 18.8335 234.281 18.4213V10.814H235.78ZM225.812 16.4534C225.845 14.2839 227.628 12.5521 229.793 12.5854C231.63 12.6142 233.152 13.903 233.551 15.6172L226.447 18.6588C226.034 18.0268 225.799 17.2665 225.812 16.4534ZM227.437 16.7577C227.428 16.6667 227.421 16.5733 227.423 16.4792C227.444 15.201 228.494 14.181 229.769 14.2022C230.463 14.2115 231.079 14.5299 231.495 15.0226L227.437 16.7577ZM231.346 18.1665C230.918 18.5837 230.337 18.8379 229.696 18.8288C229.257 18.8214 228.85 18.6896 228.503 18.4701L227.645 19.8399C228.233 20.2121 228.926 20.4323 229.673 20.4438C230.761 20.46 231.752 20.0321 232.472 19.3254L231.346 18.1665ZM241.25 14.2021C240.994 14.2021 240.748 14.2435 240.518 14.3208L240.007 12.7858C240.397 12.6552 240.815 12.5843 241.25 12.5843C243.148 12.5843 244.731 13.935 245.094 15.7292L243.512 16.0524C243.298 14.9965 242.367 14.2021 241.25 14.2021ZM238.651 19.4576L239.72 18.2459C239.243 17.8223 238.942 17.2035 238.942 16.5138C238.942 15.8248 239.243 15.2064 239.72 14.783L238.649 13.5714C237.838 14.2913 237.327 15.3432 237.327 16.5138C237.327 17.6859 237.838 18.7374 238.651 19.4576ZM241.25 18.8264C242.366 18.8264 243.297 18.0326 243.512 16.9783L245.094 17.3029C244.729 19.0952 243.146 20.444 241.25 20.444C240.815 20.444 240.396 20.3728 240.005 20.2417L240.517 18.7072C240.748 18.7843 240.994 18.8264 241.25 18.8264Z" fill="black"/>
<rect x="51.7373" y="0.5" width="44.0487" height="31" rx="5.5" fill="white" stroke="#D9D9D9"/>
<path d="M84.952 23.7139C86.6842 23.7139 88.1967 23.1542 88.5448 21.3545C88.8924 19.5548 91.156 7.97984 91.156 7.97984H62.925C61.1913 7.97984 59.6732 8.62826 59.3317 10.3383C58.9898 12.0478 56.7275 23.7114 56.7275 23.7114L84.952 23.7139Z" fill="#B3131B"/>
<path d="M84.9522 23.8447V23.7144V23.583C86.6695 23.5752 88.0901 23.0429 88.4223 21.328C88.7465 19.6523 90.7311 9.50117 91.0036 8.11122H62.9252C61.212 8.11661 59.7784 8.74101 59.4537 10.3652C59.2829 11.2195 58.6316 14.5625 58.0228 17.6924C57.498 20.3948 57.0053 22.9346 56.8798 23.5806L84.9522 23.583V23.7144L84.9517 23.8447L56.5742 23.8418L56.605 23.6849C56.605 23.6849 58.8668 12.0218 59.2092 10.3113C59.5684 8.51703 61.171 7.84264 62.9252 7.84852H91.3092L91.2784 8.00633C91.2784 8.01221 90.713 10.8995 90.1032 14.019C89.4934 17.1376 88.8407 20.4811 88.6677 21.3805C88.3066 23.2541 86.7199 23.8452 84.9858 23.8452C84.975 23.8452 84.9634 23.8452 84.9522 23.8447Z" fill="white"/>
<path d="M59.7703 18.0261L60.0049 16.7687L60.2428 15.4417L60.4467 14.1055L60.6374 12.8496L60.6542 12.7692H61.4995C61.4906 12.8094 61.4906 12.8339 61.4831 12.8496C61.4528 13.0015 61.3922 13.3376 61.3082 13.8565C61.2625 14.1368 61.2009 14.4568 61.1328 14.8175L61.1179 14.9302H61.1865L62.2897 14.9449L63.3639 14.9302H63.4488L63.4633 14.8175C63.509 14.5053 63.5547 14.177 63.6153 13.8247C63.738 13.121 63.7455 13.0725 63.7837 12.7697H64.643C64.6294 12.826 64.6294 12.826 64.6206 12.8501C64.6052 12.9299 64.5301 13.3459 64.3999 14.1055L64.1644 15.4417L63.9507 16.7692C63.8295 17.5219 63.7679 17.9379 63.7544 18.0261C63.7544 18.0565 63.7544 18.0565 63.7455 18.105H62.8849L62.9012 18.0261C62.9222 17.9296 62.9609 17.6978 63.0211 17.3298C63.0439 17.1921 63.0901 16.9618 63.1508 16.609L63.273 15.9048C63.3112 15.6897 63.3341 15.5603 63.3411 15.5285C63.3411 15.5123 63.349 15.4898 63.356 15.4491H63.2576C63.1134 15.4417 62.5952 15.4417 62.1003 15.4417C61.6054 15.4417 61.2765 15.4417 61.1244 15.4486H61.0265C61.0111 15.602 61.0036 15.6324 60.9579 15.9048C60.9196 16.1126 60.8828 16.3527 60.8441 16.6085C60.7834 16.9858 60.7443 17.2249 60.7293 17.3293C60.6687 17.7135 60.63 17.9443 60.615 18.0261C60.615 18.0403 60.615 18.0731 60.608 18.1045H59.7549L59.7703 18.0261Z" fill="white"/>
<path d="M64.5146 18.0295L64.6746 17.1725L64.8495 16.2097L64.995 15.2768C65.0683 14.802 65.1116 14.5046 65.1256 14.3821C65.1256 14.3664 65.1256 14.3434 65.1331 14.3057H65.8818C65.8757 14.3434 65.8678 14.3664 65.8617 14.3821C65.8323 14.5046 65.7815 14.802 65.6929 15.2768L65.5259 16.2097L65.3743 17.1725C65.3071 17.6233 65.2632 17.9139 65.2483 18.0295C65.2483 18.0442 65.2483 18.0751 65.2427 18.105H64.4922L64.5146 18.0295ZM65.2796 13.3184C65.2796 12.9293 65.461 12.699 65.7815 12.699C65.9998 12.699 66.1089 12.8068 66.1089 13.0283C66.1089 13.411 65.9191 13.6476 65.6061 13.6476C65.4242 13.6476 65.315 13.5702 65.2852 13.4262C65.2796 13.387 65.2796 13.3566 65.2796 13.3184Z" fill="white"/>
<path d="M65.6435 19.7189C65.6789 19.5513 65.7666 19.0774 65.9052 18.2825L66.1449 16.9126L66.3562 15.5977C66.4584 14.9552 66.5172 14.5499 66.5391 14.3818C66.5391 14.3509 66.5391 14.3509 66.5456 14.3049H67.1945L67.1786 14.3818L67.1436 14.5945L67.1292 14.6793C67.4785 14.3583 67.8349 14.2215 68.3149 14.2215C69.1298 14.2215 69.5669 14.6871 69.5669 15.5595C69.5669 16.0413 69.4433 16.5843 69.2315 17.0665C68.8882 17.8232 68.3219 18.206 67.5578 18.206C67.0765 18.206 66.8582 18.0678 66.6842 17.6708L66.6697 17.7615L66.5022 18.8936C66.4439 19.2764 66.3987 19.5513 66.3852 19.7121C66.3852 19.7189 66.3852 19.7498 66.3791 19.8037H65.6211C65.6351 19.7498 65.6351 19.7498 65.6435 19.7189ZM67.0979 15.237L66.8582 16.6602C66.8432 16.7597 66.8297 16.8509 66.8297 16.9519C66.8297 17.4483 67.0704 17.6943 67.5425 17.6943C67.8559 17.6943 68.1106 17.5777 68.3 17.3562C68.5985 16.9974 68.8024 16.2941 68.8024 15.6516C68.8024 15.0317 68.5407 14.7249 67.9725 14.7249C67.6301 14.7249 67.3461 14.8636 67.1198 15.1228L67.0979 15.237Z" fill="white"/>
<path d="M71.226 18.1904C70.245 18.1904 69.7627 17.7484 69.7627 16.8294C69.7627 16.3241 69.8872 15.7585 70.0986 15.2851C70.4186 14.5735 71.0166 14.222 71.8963 14.222C72.7332 14.222 73.1497 14.5573 73.1497 15.2233C73.1497 15.414 73.1049 15.7134 73.0326 16.0565L72.9524 16.0487C72.8218 16.0418 72.4132 16.0418 71.7289 16.0418C71.1467 16.0418 70.7908 16.0418 70.6527 16.0487L70.5781 16.0565C70.5132 16.4006 70.5072 16.4858 70.5072 16.7304C70.5072 17.343 70.8407 17.6714 71.4672 17.6714C71.8758 17.6714 72.2676 17.5876 72.7056 17.3881L72.5956 17.9998C72.1734 18.1223 71.6776 18.1904 71.226 18.1904ZM70.7535 15.613C70.8337 15.6213 71.1033 15.6213 71.5549 15.6213H71.671C71.9985 15.6213 72.2243 15.6213 72.3549 15.613H72.4211L72.4351 15.5135C72.4496 15.4223 72.4575 15.3375 72.4575 15.262C72.4575 14.8866 72.2163 14.7038 71.7508 14.7038C71.1607 14.7038 70.8258 14.9783 70.6732 15.613H70.7535Z" fill="white"/>
<path d="M73.2572 18.0295L73.4181 17.1725L73.5925 16.2096L73.7381 15.2766C73.8109 14.8018 73.8542 14.5043 73.8692 14.3818C73.8692 14.3662 73.8766 14.3431 73.8766 14.3054H74.5311L74.5171 14.3818L74.4313 14.8635L74.4079 14.9699C74.5311 14.7645 74.5754 14.7097 74.6692 14.5945C74.8749 14.351 75.1436 14.2206 75.4272 14.2206C75.5736 14.2206 75.6972 14.2515 75.8344 14.3201L75.7406 14.8709C75.5802 14.8175 75.4491 14.7954 75.311 14.7954C74.8749 14.7954 74.4882 15.208 74.3347 15.8416C74.2778 16.0793 74.2251 16.3546 74.1761 16.6761C74.0301 17.6316 74.0142 17.7076 73.9858 18.105H73.2432L73.2572 18.0295Z" fill="white"/>
<path d="M78.4544 14.9013C78.1484 14.7871 77.8209 14.7248 77.5214 14.7248C77.1655 14.7248 76.8945 14.8175 76.714 15.0008C76.4155 15.2993 76.1827 16.0415 76.1827 16.7066C76.1827 17.3576 76.4528 17.6713 77.006 17.6713C77.3335 17.6713 77.7556 17.564 78.0458 17.411L77.9436 17.9914C77.5728 18.1223 77.1805 18.1904 76.7802 18.1904C76.2111 18.1904 75.8986 18.0522 75.6579 17.7091C75.4979 17.4645 75.4326 17.212 75.4326 16.8066C75.4326 16.2787 75.5562 15.7282 75.7895 15.2454C75.8921 15.0233 76.0367 14.8248 76.2191 14.6562C76.5395 14.3508 76.9472 14.2204 77.6096 14.2204C77.8424 14.2204 78.0891 14.2361 78.4828 14.2738L78.5556 14.2812L78.4544 14.9013Z" fill="white"/>
<path d="M79.546 18.1904C78.8104 18.1904 78.4619 17.8689 78.4619 17.197C78.4619 16.2021 79.1308 15.6296 80.2886 15.6296C80.47 15.6296 80.8274 15.6438 81.0667 15.6595L81.0825 15.5757C81.1329 15.2998 81.1329 15.2772 81.1329 15.1851C81.1329 14.8793 80.8927 14.7254 80.3973 14.7254C80.0199 14.7254 79.6561 14.7876 79.1817 14.9258L79.3281 14.2975C79.3566 14.3054 79.3785 14.3054 79.393 14.3054C79.5087 14.3054 79.692 14.2902 79.9462 14.2593C80.1645 14.2367 80.3828 14.222 80.5862 14.222C81.4524 14.222 81.8391 14.4593 81.8391 14.9866C81.8391 15.1233 81.8177 15.2772 81.7589 15.613L81.6423 16.3094C81.5126 17.0519 81.4394 17.641 81.4394 17.9846C81.4394 18.015 81.4394 18.0606 81.4454 18.1061H80.7905V18.0458C80.7905 17.9375 80.8204 17.7008 80.8488 17.4788C80.5214 17.9846 80.1361 18.1904 79.546 18.1904ZM80.9146 16.0957C80.6954 16.0732 80.5862 16.0732 80.4341 16.0732C79.9896 16.0732 79.7279 16.133 79.5245 16.3021C79.3067 16.478 79.1747 16.7677 79.1747 17.0892C79.1747 17.4729 79.393 17.6778 79.7923 17.6778C80.1939 17.6778 80.5503 17.4489 80.7261 17.0749C80.8348 16.8294 80.9146 16.5309 80.9869 16.1026L80.9146 16.0957Z" fill="white"/>
<path d="M82.0735 18.0295L82.2321 17.1725L82.4089 16.2096L82.5544 15.2766C82.6263 14.8018 82.6701 14.5043 82.6837 14.3818C82.6837 14.3662 82.6916 14.3431 82.6916 14.3054H83.3474L83.3311 14.3818L83.2444 14.8635L83.2229 14.9699C83.3474 14.7645 83.3904 14.7097 83.4851 14.5945C83.6898 14.351 83.958 14.2206 84.2426 14.2206C84.3877 14.2206 84.5113 14.2515 84.6498 14.3201L84.5551 14.8709C84.3947 14.8175 84.2645 14.7954 84.1246 14.7954C83.6898 14.7954 83.3036 15.208 83.1511 15.8416C83.0928 16.0793 83.0414 16.3546 82.9906 16.6761C82.8451 17.6316 82.8301 17.7076 82.8003 18.105H82.0586L82.0735 18.0295Z" fill="white"/>
<path d="M85.4991 18.1904C84.6473 18.1904 84.2471 17.7778 84.2471 16.8838C84.2471 16.3633 84.3707 15.8119 84.6035 15.3375C84.9528 14.6043 85.5578 14.222 86.3574 14.222C86.5841 14.222 86.8094 14.244 86.9908 14.2901C87.0501 14.3126 87.0869 14.3205 87.1956 14.3587L87.2096 14.2666C87.239 14.1137 87.2754 13.8701 87.3258 13.5329C87.3836 13.1658 87.4209 12.8982 87.4424 12.7286L87.4503 12.6678H88.1925L88.1785 12.7217C88.1192 13.0285 88.0334 13.4873 87.9238 14.1137C87.726 15.2316 87.6542 15.6521 87.5445 16.3471C87.413 17.197 87.3551 17.7165 87.3551 18.0522V18.1061H86.6783C86.6848 17.9846 86.6848 17.9459 86.7077 17.7856C86.7296 17.6621 86.7375 17.618 86.7515 17.4871C86.4614 18.0076 86.126 18.1904 85.4991 18.1904ZM86.3942 14.7189C86.0742 14.7189 85.8135 14.8101 85.6227 14.9865C85.2593 15.3228 85.0116 16.0486 85.0116 16.799C85.0116 17.4033 85.2448 17.6778 85.7533 17.6778C86.1325 17.6778 86.4894 17.4489 86.6484 17.096C86.7226 16.9294 86.78 16.722 86.8313 16.4858C86.919 16.0187 87.0356 15.3532 87.1009 14.9473L87.1084 14.864C86.8467 14.765 86.641 14.7189 86.3942 14.7189Z" fill="white"/>
<rect x="0.5" y="0.5" width="44.0487" height="31" rx="5.5" fill="white" stroke="#D9D9D9"/>
<path fill-rule="evenodd" clip-rule="evenodd" d="M38.9468 4.48584H5.82193C5.17687 4.48584 4.77282 4.5901 4.55307 4.80606C4.36168 5.0518 4.26953 5.45393 4.26953 6.04969V8.2763V10.071V22.902V24.7786V26.9233C4.26953 27.9882 4.79408 28.5393 5.82193 28.5393H38.9468C40.0242 28.5393 40.563 27.9882 40.563 26.9233V24.7786V22.902V10.0636V8.26886V6.04224C40.563 4.99223 40.0242 4.48584 38.9468 4.48584Z" fill="#0C98BC"/>
<path d="M36.1046 17.1158H34.9421C34.8854 17.1158 34.5239 17.1009 34.1269 17.2721V17.1158H31.7806C31.7239 17.1158 31.3695 17.1009 30.9796 17.2647V17.1158H30.3133H26.8611V17.2572C26.4925 17.0934 26.131 17.1009 25.9963 17.1158H23.1892V17.2349C22.8419 17.0934 22.5087 17.1009 22.3882 17.1083H20.2404L19.5528 17.1158H19.2622C19.2622 17.1158 18.7943 17.6444 18.525 17.9572C18.2556 17.6444 17.7878 17.1083 17.7878 17.1083H13.5771V22.209H17.8586C17.8586 22.209 18.291 21.7175 18.5179 21.4494C18.7447 21.7175 19.1771 22.209 19.1771 22.209H21.7999C21.7999 22.209 21.7999 21.2558 21.7999 21.0176C21.8779 21.0176 22.0125 21.0176 22.0125 21.0176C22.4095 21.0176 22.8277 20.9803 23.1963 20.824V22.2164H25.4151C25.4151 22.2164 25.4151 21.2261 25.4151 20.9282C25.4718 20.9282 25.5427 20.9282 25.5639 20.9282C25.5639 21.025 25.5568 21.5165 25.5568 21.5165V22.2164H27.7543V22.209H30.9867V22.2015H32.3193C32.3689 22.2015 32.4257 22.209 32.4257 22.209C32.6879 22.209 32.9644 22.1494 33.2196 22.0451V22.209H35.4737C35.5234 22.209 35.5801 22.2164 35.5801 22.2164C35.8778 22.2164 36.1968 22.1419 36.4803 21.993C36.5299 21.9707 36.5796 21.9483 36.6221 21.9186V21.926C36.7355 21.8515 36.8915 21.7101 37.0616 21.4643V21.3526V17.1232H36.1046V17.1158Z" fill="white"/>
<path d="M9.48833 15.1563C9.78605 15.1563 9.94909 15.1563 10.2468 15.1563C10.3177 15.3276 10.5587 15.9309 10.5587 15.9309H13.4296C13.4296 15.9309 13.4296 15.8564 13.4296 15.8341C13.4437 15.8713 13.4721 15.9309 13.4721 15.9309H15.0458C15.0458 15.9309 15.067 15.8787 15.0812 15.849C15.0812 15.8638 15.0812 15.9309 15.0812 15.9309H17.144H17.3141H19.7384H20.5961H21.9571C21.9571 15.9309 21.9571 14.9403 21.9571 14.6423C22.0067 14.6423 22.0847 14.6423 22.106 14.6423C22.106 14.7392 22.0989 15.2308 22.0989 15.2308V15.9309H24.0766V15.9458H25.6432V15.6181C25.9125 15.7968 26.189 15.9011 26.3946 15.9309L26.4442 15.9383H28.3368C28.3368 15.9383 28.5778 15.335 28.6487 15.1637C28.9464 15.1637 29.1095 15.1637 29.4072 15.1637C29.4781 15.3425 29.7262 15.9383 29.7262 15.9383H32.5829C32.5829 15.9383 32.5829 15.3276 32.5829 15.2754C32.6254 15.3499 32.9657 15.9383 32.9657 15.9383H35.2411V10.8438H33.0153C33.0153 10.8438 33.0153 11.38 33.0153 11.4769C32.9798 11.4098 32.6467 10.8438 32.6467 10.8438H30.3429C30.3429 10.8438 30.3429 11.2981 30.3429 11.4396C30.3358 11.4247 30.1019 10.8438 30.1019 10.8438H27.9682V10.8512C27.9257 10.8512 26.7277 10.814 26.7277 10.814C26.352 10.8289 25.9834 10.9406 25.6573 11.1566V10.8512H24.991H23.4244V10.9927C23.0558 10.8289 22.6943 10.8363 22.5596 10.8512H20.6103H19.9369H19.7384H17.3141H16.6478H16.4777H14.8048C14.8048 10.8512 14.4291 11.7301 14.2518 12.1472C14.0746 11.7301 13.6989 10.8512 13.6989 10.8512H11.1967C11.1967 10.8512 11.1967 11.4024 11.1967 11.4918C11.1896 11.4694 10.9415 10.8512 10.9415 10.8512H8.80074L7.81543 13.3091V15.9458H9.16935C9.16935 15.9383 9.41744 15.335 9.48833 15.1563Z" fill="white"/>
<path d="M22.7781 15.2381V14.5157C22.7781 14.5157 22.7427 13.9497 22.1828 13.9497H21.311V15.2381H20.418V11.5367H22.5868C22.5868 11.5367 23.7208 11.3952 23.7208 12.624C23.7208 13.2645 23.2175 13.488 23.2175 13.488C23.2175 13.488 23.6499 13.7039 23.6499 14.3295V15.2456H22.7781V15.2381ZM21.311 13.0858H22.2324C22.5017 13.0858 22.7214 12.9294 22.7214 12.7358C22.7214 12.5421 22.5017 12.3857 22.2324 12.3857H21.311V13.0858Z" fill="url(#paint0_radial)"/>
<path d="M33.3329 15.2377L31.9152 12.7648V15.2377H31.1425H31.0007H30.1572L29.8382 14.463H28.2008L27.8889 15.2377H27.0666H26.9177H26.4853C26.4853 15.2377 25.2803 15.0589 25.2803 13.4873C25.2803 11.4315 26.6484 11.5134 26.6909 11.4985L27.7967 11.5283V12.3626L26.8894 12.3775C26.8894 12.3775 26.301 12.3775 26.2231 13.1893C26.216 13.2787 26.2089 13.3681 26.2089 13.45C26.2089 14.7014 27.2438 14.3141 27.2792 14.2992L28.3922 11.5358H29.6468L30.9866 14.895V11.5358H32.2696L33.6731 13.9714V11.5358H34.5734V15.2377H33.3329ZM28.5906 13.5171H29.4625L29.0301 12.4147L28.5906 13.5171Z" fill="url(#paint1_radial)"/>
<path d="M15.7535 15.2387V12.6841L14.6335 15.2387H13.9034L12.7763 12.6915V15.2387H11.9965H11.876H11.0041L10.6922 14.4641H9.06186L8.74287 15.2387H7.76465L9.24617 11.5371H10.5079L11.8689 14.9408V11.5371H13.2796L14.2649 13.8385L15.2431 11.5371H16.6537V15.2387H15.7535ZM9.44465 13.5182H10.3165L9.87705 12.416L9.44465 13.5182Z" fill="url(#paint2_radial)"/>
<path d="M17.1572 15.2382V11.5366H19.9497V12.4006H18.0573V12.9666H19.9001V13.8082H18.0573V14.4338H19.9497V15.2382H17.1572Z" fill="url(#paint3_radial)"/>
<path d="M24.0898 15.2529V11.5366H24.99V15.2529H24.0898Z" fill="url(#paint4_radial)"/>
<path d="M26.2303 21.5159V20.7938C26.2303 20.7938 26.1948 20.2281 25.6349 20.2281H24.7631V21.5085H23.8701V17.8087H26.0389C26.0389 17.8087 27.1729 17.6672 27.1729 18.8955C27.1729 19.5357 26.6697 19.7591 26.6697 19.7591C26.6697 19.7591 27.102 19.9749 27.102 20.6003V21.5159H26.2303ZM24.7631 19.3645H25.6845C25.9539 19.3645 26.1736 19.2082 26.1736 19.0146C26.1736 18.8211 25.9539 18.6648 25.6845 18.6648H24.7631V19.3645Z" fill="url(#paint5_radial)"/>
<path d="M20.2623 21.5193H19.4826L18.5327 20.4248L17.5757 21.5193H17.0299H14.2441V17.8115H17.0299H17.5049L18.5327 18.9879L19.5676 17.8189H20.2552V17.8115H22.4243C22.4243 17.8115 23.5585 17.6775 23.5585 18.8985C23.5585 19.9856 23.1828 20.3281 22.0273 20.3281H21.1484V21.5193H20.2623ZM19.1423 19.6952L20.2552 20.9833V18.4071L19.1423 19.6952ZM15.1515 20.7152H17.037L17.9231 19.6952L17.037 18.6751H15.1515V19.2485H16.9874V20.0898H15.1515V20.7152ZM21.1484 19.3601H22.0699C22.3392 19.3601 22.559 19.2038 22.559 19.0102C22.559 18.8166 22.3392 18.6603 22.0699 18.6603H21.1484V19.3601Z" fill="url(#paint6_radial)"/>
<path d="M32.3343 21.509H30.7396V20.653H32.1358C32.1358 20.653 32.639 20.7126 32.639 20.3627C32.639 20.0278 31.8807 20.0576 31.8807 20.0576C31.8807 20.0576 30.6475 20.1692 30.6475 18.9559C30.6475 17.7501 31.7602 17.8171 31.7602 17.8171H33.4753V18.6731H32.0933C32.0933 18.6731 31.6184 18.5689 31.6184 18.9336C31.6184 19.2388 32.2705 19.1941 32.2705 19.1941C32.2705 19.1941 33.6383 19.0899 33.6383 20.2064C33.6383 21.4048 32.7595 21.509 32.4477 21.509C32.3768 21.509 32.3343 21.509 32.3343 21.509Z" fill="url(#paint7_radial)"/>
<path d="M27.542 21.5164V17.8164H30.3345V18.6725H28.4421V19.2458H30.2848V20.087H28.4421V20.7124H30.3345V21.5164H27.542Z" fill="url(#paint8_radial)"/>
<path d="M35.4886 21.509H33.8939V20.653H35.283C35.283 20.653 35.7934 20.7126 35.7934 20.3627C35.7934 20.0278 35.035 20.0576 35.035 20.0576C35.035 20.0576 33.8018 20.1692 33.8018 18.9559C33.8018 17.7501 34.9145 17.8171 34.9145 17.8171H36.6297V18.6731H35.2476C35.2476 18.6731 34.7727 18.5689 34.7727 18.9336C34.7727 19.2388 35.4248 19.1941 35.4248 19.1941C35.4248 19.1941 36.7927 19.0899 36.7927 20.2064C36.7927 21.4048 35.9138 21.509 35.602 21.509C35.5311 21.509 35.4886 21.509 35.4886 21.509Z" fill="url(#paint9_radial)"/>
<path d="M36.4876 21.9858L36.4805 21.9933C36.4805 21.9933 36.5372 21.9707 36.6293 21.9104V21.9028C36.5797 21.933 36.5301 21.9556 36.4876 21.9858Z" fill="white"/>
<defs>
<radialGradient id="paint0_radial" cx="0" cy="0" r="1" gradientUnits="userSpaceOnUse" gradientTransform="translate(11.7745 4.46458) scale(34.7116 36.4747)">
<stop stop-color="#00B8E9"/>
<stop offset="0.427" stop-color="#009ACA"/>
<stop offset="0.5077" stop-color="#0090BD"/>
<stop offset="0.8347" stop-color="#006D8E"/>
<stop offset="1" stop-color="#00607E"/>
</radialGradient>
<radialGradient id="paint1_radial" cx="0" cy="0" r="1" gradientUnits="userSpaceOnUse" gradientTransform="translate(11.772 4.46245) scale(34.7178 36.4805)">
<stop stop-color="#00B8E9"/>
<stop offset="0.427" stop-color="#009ACA"/>
<stop offset="0.5077" stop-color="#0090BD"/>
<stop offset="0.8347" stop-color="#006D8E"/>
<stop offset="1" stop-color="#00607E"/>
</radialGradient>
<radialGradient id="paint2_radial" cx="0" cy="0" r="1" gradientUnits="userSpaceOnUse" gradientTransform="translate(11.7721 4.46519) scale(34.7178 36.4774)">
<stop stop-color="#00B8E9"/>
<stop offset="0.427" stop-color="#009ACA"/>
<stop offset="0.5077" stop-color="#0090BD"/>
<stop offset="0.8347" stop-color="#006D8E"/>
<stop offset="1" stop-color="#00607E"/>
</radialGradient>
<radialGradient id="paint3_radial" cx="0" cy="0" r="1" gradientUnits="userSpaceOnUse" gradientTransform="translate(11.7741 4.46469) scale(34.7097 36.4747)">
<stop stop-color="#00B8E9"/>
<stop offset="0.427" stop-color="#009ACA"/>
<stop offset="0.5077" stop-color="#0090BD"/>
<stop offset="0.8347" stop-color="#006D8E"/>
<stop offset="1" stop-color="#00607E"/>
</radialGradient>
<radialGradient id="paint4_radial" cx="0" cy="0" r="1" gradientUnits="userSpaceOnUse" gradientTransform="translate(11.777 4.46536) scale(34.7077 36.4705)">
<stop stop-color="#00B8E9"/>
<stop offset="0.427" stop-color="#009ACA"/>
<stop offset="0.5077" stop-color="#0090BD"/>
<stop offset="0.8347" stop-color="#006D8E"/>
<stop offset="1" stop-color="#00607E"/>
</radialGradient>
<radialGradient id="paint5_radial" cx="0" cy="0" r="1" gradientUnits="userSpaceOnUse" gradientTransform="translate(11.7739 4.47201) scale(34.7124 36.4595)">
<stop stop-color="#00B8E9"/>
<stop offset="0.427" stop-color="#009ACA"/>
<stop offset="0.5077" stop-color="#0090BD"/>
<stop offset="0.8347" stop-color="#006D8E"/>
<stop offset="1" stop-color="#00607E"/>
</radialGradient>
<radialGradient id="paint6_radial" cx="0" cy="0" r="1" gradientUnits="userSpaceOnUse" gradientTransform="translate(11.7726 4.47243) scale(34.7181 36.4665)">
<stop stop-color="#00B8E9"/>
<stop offset="0.427" stop-color="#009ACA"/>
<stop offset="0.5077" stop-color="#0090BD"/>
<stop offset="0.8347" stop-color="#006D8E"/>
<stop offset="1" stop-color="#00607E"/>
</radialGradient>
<radialGradient id="paint7_radial" cx="0" cy="0" r="1" gradientUnits="userSpaceOnUse" gradientTransform="translate(11.7749 4.47485) scale(34.7135 36.4575)">
<stop stop-color="#00B8E9"/>
<stop offset="0.427" stop-color="#009ACA"/>
<stop offset="0.5077" stop-color="#0090BD"/>
<stop offset="0.8347" stop-color="#006D8E"/>
<stop offset="1" stop-color="#00607E"/>
</radialGradient>
<radialGradient id="paint8_radial" cx="0" cy="0" r="1" gradientUnits="userSpaceOnUse" gradientTransform="translate(11.7739 4.4718) scale(34.7138 36.463)">
<stop stop-color="#00B8E9"/>
<stop offset="0.427" stop-color="#009ACA"/>
<stop offset="0.5077" stop-color="#0090BD"/>
<stop offset="0.8347" stop-color="#006D8E"/>
<stop offset="1" stop-color="#00607E"/>
</radialGradient>
<radialGradient id="paint9_radial" cx="0" cy="0" r="1" gradientUnits="userSpaceOnUse" gradientTransform="translate(11.7765 4.47486) scale(34.7115 36.4547)">
<stop stop-color="#00B8E9"/>
<stop offset="0.427" stop-color="#009ACA"/>
<stop offset="0.5077" stop-color="#0090BD"/>
<stop offset="0.8347" stop-color="#006D8E"/>
<stop offset="1" stop-color="#00607E"/>
</radialGradient>
</defs>
</svg>
