<svg width="28" height="29" viewBox="0 0 28 29" fill="none" xmlns="http://www.w3.org/2000/svg">
<path d="M14 0.986206C6.2804 0.986206 0 7.26661 0 14.9862C0 22.7058 6.2804 28.9862 14 28.9862C21.7196 28.9862 28 22.7058 28 14.9862C28 7.26661 21.7196 0.986206 14 0.986206ZM11.2014 21.1644L6.99363 16.9657C6.44658 16.4198 6.44547 15.5339 6.99117 14.9866C7.5372 14.4391 8.42382 14.4381 8.9711 14.9844L11.1986 17.208L17.6204 10.7862C18.1671 10.2396 19.0533 10.2396 19.6 10.7862C20.1467 11.3329 20.1467 12.2192 19.6 12.7658L11.2014 21.1644Z" fill="#1EF473"/>
</svg>
